Patient4_TMGait_0pt4_03_right_35_EMG.mot
version=1
nRows=40
nColumns=33
inDegrees=no
endheader
time	1LAddLong	2LGlutMax	3LGlutMed	4LIliopsoas	5LSemiMemb	6LBicFemLong	7LRecFem	8LVastMed	9LVastLat	10LGasMed	11LTibAnt	12lTibPost	13LPeroneusLong	14LSol	15LExtDigLong	16LFlexDigLong	17RAddLong	18RGlutMax	19RGlutMed	20RIliopsoas	21RSemiMemb	22RBicFemLong	23RRecFem	24RVastMed	25RVastLat	26RGasMed	27RTibAnt	28RTibPost	29RPeroneusLong	30RSol	31RExtDigLong	32RFlexDigLong
46.59	0.02533	0.056	0.020752	0.01297	0.057373	0.001678	0.096588	0.004272	0.008087	-0.039978	0.004578	0.013885	0.021667	0.093842	0.024872	-0.32425	0.004425	-0.1828	0.20004	0.004272	0.02594	0.032959	-0.20325	-0.005188	0.002594	0.017242	0.016937	-0.16571	0.1796	-0.092926	0.001678	-0.020142
46.591	0.015106	0.064697	0.038147	0.018158	0.021362	-0.003357	0.10391	-0.009155	-0.013428	0.015411	0.003357	0.012054	0.16876	0.12512	0.005798	-0.058899	-0.010071	-0.12161	0.32379	-0.055237	0.010376	0.11444	-0.21774	-0.037689	-0.004425	-0.033264	0.00885	0.096893	0.12894	-0.66223	-0.005188	-0.025482
46.592	0.008545	0.020752	0.053711	0.003357	0.016022	0.002136	0.066986	0.007019	-0.02655	0.042114	-0.000153	0.018921	0.054626	0.15152	0.006561	-0.15762	-0.009155	-0.14358	0.33066	-0.046997	0.010376	0.15091	-0.2301	-0.060425	0.005951	-0.069733	0.032654	0.20187	-0.030518	-0.44266	-0.002441	-0.023041
46.593	0.019379	-0.003967	-0.011597	0.002594	0.011292	0.009766	0.055847	0.001526	-0.019531	0.066833	-0.00061	0.016632	-0.027313	0.22766	-0.000916	-1.3835	0.001526	-0.2034	0.18188	-0.038452	-0.00824	0.12131	-0.215	-0.049438	0.001984	-0.037231	0.02243	0.12726	-0.066681	0.20569	0	-0.018616
46.594	0.002594	0.00061	-0.044098	-0.010223	0.008545	-0.001373	-0.034943	0.006866	-0.018616	0.069122	0.008087	-0.002899	-0.016022	0.20599	0.000305	0.25757	0.00885	-0.18555	-0.028992	-0.007629	-0.01236	0.070648	-0.25223	-0.010529	-0.007782	0.007935	0.013428	-0.2681	-0.009308	0.26032	-0.001526	-0.012512
46.595	-0.005341	0.003204	-0.056	-0.000305	-0.001068	-0.012817	-0.092468	0	0.065308	0.048981	0.000305	0.010376	0.12116	-0.14877	-0.015411	0.91507	0.009918	-0.21576	0.080872	0.010986	-0.023499	0.04425	-0.24902	-0.043182	0.003662	0.016479	0.041046	0.081024	0.028229	0.044861	-0.006561	-0.005341
46.596	-0.003204	-0.046692	0.03952	-0.001068	-0.032196	-0.019531	-0.086975	0.001831	0.16815	-0.00946	0.000763	0.011292	0.26077	-0.51376	-0.017548	-0.053864	0.000916	-0.18372	0.15015	0.018616	-0.039673	0.024567	-0.24704	-0.018463	0.022278	0.008545	0.097961	0.14358	-0.11963	-0.22446	0	-0.010681
46.597	-0.011139	-0.052643	0.058746	0.008698	-0.015259	-0.04364	-0.025482	-0.009155	0.22507	-0.083923	0.009308	0.005798	0.11581	-0.63614	-0.017242	-0.35294	0.015259	-0.11124	0.14023	-0.001221	-0.048676	0.010223	-0.23178	-0.019989	0.004425	0.028839	0.1471	0.068817	-0.80475	-0.21164	-0.00351	-0.013123
46.598	0.005951	-0.094299	0.045166	0.015259	0.007629	-0.063477	-0.005188	-0.016327	0.18631	-0.10468	0.007324	0.022125	0.018463	-0.2533	0.014343	0.48309	0.007172	-0.096741	0.15289	-0.02243	-0.028839	-0.033569	-0.25787	-0.02533	0.015106	0.045776	0.16663	0.017853	-1.8188	-0.13641	-0.002747	-0.007629
46.599	0.002899	-0.11322	0.023956	-0.004883	-0.005341	-0.045776	-0.011902	-0.025635	0.21423	-0.13092	0.006409	0.012665	0.00946	-0.01358	0.04837	-0.016937	0.020447	-0.10788	0.19898	-0.030518	-0.028381	-0.04425	-0.31281	-0.060425	0.013733	0.034485	0.039215	-0.011597	-0.30762	-0.067444	-0.003357	-0.005341
46.6	-0.01358	-0.1268	0.021667	0.00061	-0.010529	0.020294	0.026703	-0.021973	0.13657	-0.1181	0.001526	0.012512	0.024719	0.074158	0.033417	-0.0914	0.011444	-0.10483	0.23193	-0.030212	-0.075684	0.026703	-0.28153	-0.029602	0.011749	0.002899	-0.11169	-0.01358	0.94574	-0.49301	-0.00061	-0.011139
46.601	-0.018921	-0.12909	0.015411	-0.007324	-0.005493	0.049133	0.053406	-0.003204	-0.15076	-0.078125	0.004425	0.006409	0.058594	0.016174	0.015717	-0.095673	0.00885	-0.11414	0.097656	0.027618	-0.090485	0.080109	-0.31387	-0.013123	0.022736	-0.063171	-0.051117	-0.013885	0.41596	-0.92926	-0.000916	-0.0177
46.602	-0.029144	-0.10849	-0.005493	-0.003815	0.015411	0.071564	0.08255	-0.012054	-0.37323	-0.036011	-0.005798	0.010529	0.063934	0.066833	-0.011597	-0.29846	-0.00824	-0.11688	0.15533	0.066833	-0.086365	0.17014	-0.28534	-0.007782	0.018616	0	-0.097351	-0.024719	0.50491	-1.201	-0.003052	-0.016327
46.603	-0.036316	-0.14145	-0.026245	-0.001831	0.042267	0.076752	0.079803	0.010223	-0.38711	0.005035	-0.001221	0.007172	0.062866	0.024109	0.00885	-0.14343	-0.000916	-0.11063	0.31128	0.046844	-0.083771	0.075531	-0.27329	-0.024261	0.011292	0.015869	-0.12299	-0.036316	0.83847	-0.85403	-0.005035	-0.016174
46.604	-0.031128	-0.15717	-0.045624	0.016479	-0.042114	0.084076	0.075226	0.009155	-0.26016	0.016327	-0.002899	0.012054	0.054016	0.075226	0.000153	0.033417	0.008087	-0.10284	0.22553	-0.014343	-0.067596	0.067596	-0.22659	-0.027161	-0.021362	-0.000458	-0.083466	-0.056	0.26138	0.12634	-0.000305	-0.020905
46.605	-0.025024	-0.11581	-0.020599	0.016327	-0.12344	0.066833	0.012665	0.009918	-0.16113	0.037689	-0.003662	0.018921	0.079346	0.22659	-0.005035	0.1712	0.00946	-0.10803	0.33234	-0.045776	-0.010681	0.009003	-0.20844	-0.019379	0.004272	0.004883	-0.018158	-0.071564	0.030212	0.8165	-0.001678	-0.021973
46.606	-0.019073	-0.11002	0.076904	-0.00061	-0.12131	0.001526	-0.099335	0.006866	-0.11002	0.066986	0.002594	0.014801	0.072021	0.25223	-0.011292	0.018311	0.004578	-0.029602	0.42618	-0.031433	-0.032196	-0.088196	-0.24612	0.046844	0.004425	0.005493	0.019989	0.003204	0.24002	0.69458	0.001831	-0.018311
46.607	-0.000458	-0.084839	0.029297	-0.015869	-0.014801	-0.014954	-0.17151	-0.007935	-0.081177	0.053864	-0.006866	0.003967	0.082703	0.050964	-0.007935	-0.18799	-0.000153	-0.068665	0.24612	0.036774	-0.043335	-0.16525	-0.26672	0.032959	0.008087	-0.007935	0.011292	0.013123	0.25391	0.40573	-0.007782	-0.021362
46.608	0.01709	-0.1062	-0.011749	0.00412	0.09201	-0.041046	-0.21301	-0.010223	-0.059509	0.006409	-0.000153	0.015564	0.062866	0.036774	-0.014648	-0.093689	0.001526	-0.024261	0.11932	0.054626	0.054169	-0.14267	-0.27435	0.042419	0.006104	-0.008698	-0.018921	0.018463	0.20859	0.28168	-0.001678	-0.015106
46.609	0.023346	-0.091248	0.006866	0.013885	0.10529	-0.014496	-0.16403	-0.017242	-0.028992	-0.010834	0.004425	0.018768	0.06546	-0.055237	-0.03418	-0.024719	-0.01709	-0.028839	0.19623	0.031891	-0.00412	-0.099182	-0.27145	0.049286	0.000763	-0.00946	0.01297	0.037689	0.1944	0.12466	-0.002594	-0.014496
46.61	0.026855	-0.15961	0.024567	0.014191	0.060272	-0.042725	-0.067139	-0.020142	-0.032654	-0.016785	-0.010071	0.002747	0.068054	-0.040588	-0.014801	0.096588	-0.010376	0.018616	0.16678	0.019989	0.04776	-0.01236	-0.25177	0.014343	0.005035	-0.003967	0.041656	0.059204	-0.1416	-0.25253	-0.003204	-0.014496
46.611	0.020752	-0.15793	0.02655	0.001984	0.010986	-0.051727	0.024261	-0.026855	-0.058136	-0.003815	-0.003815	0.008087	0.059662	0.11337	-0.003052	0.079041	-0.005798	-0.032654	0.13992	-0.073853	0.066223	0.047302	-0.23621	0.009003	-0.020294	0.005188	0.067444	0.02533	-0.76523	-0.37094	-0.001831	-0.010071
46.612	0.01709	-0.095215	0.050049	0.005646	-0.018616	-0.002594	0.06012	-0.025177	-0.087128	0.001984	-0.001678	0.010529	0.050812	0.098114	-0.016632	-0.053406	-0.00824	0.03952	0.27863	-0.13473	0.025177	0.066833	-0.24262	0.027924	-0.007324	-0.010376	0.065308	0.009003	-0.59113	0.55542	0.000458	0.000305
46.613	0.016327	-0.065918	0.04715	-0.007477	-0.015869	0.022278	0.0737	-0.020599	-0.066986	-0.01358	0.001373	0.010071	0.059204	-0.069427	-0.017548	0.014954	-0.010834	-0.003204	0.4007	-0.21271	0.031281	0.14206	-0.25696	0.00473	-0.004272	-0.052032	0.00412	-0.024414	0.15671	0.54336	-0.007935	0.002899
46.614	0.043182	-0.080872	0.029602	-0.003815	0.06958	-0.028534	0.019836	-0.0177	-0.054779	-0.015106	-0.011292	0.022583	0.06012	-0.028381	0.003815	0.02182	-0.010071	-0.012207	0.21561	-0.14389	0.021362	0.1918	-0.24963	-0.010223	-0.001678	-0.11261	-0.022125	-0.16754	0.065308	0.070343	-0.00061	-0.000305
46.615	0.055237	-0.088348	0.036316	-0.006866	0.052795	-0.032501	-0.003357	-0.019379	0.04715	-0.03006	0.001831	0.01709	0.054932	0.073242	0.001831	-0.018463	-0.005798	-0.043793	0.061951	-0.038452	-0.002441	0.16388	-0.26016	-0.00824	0.019684	-0.097046	-0.00473	0.013275	0.31433	-0.04837	-0.001831	0.00351
46.616	0.028992	-0.096741	0.033112	0.004272	0.026703	-0.043793	-0.0177	-0.016022	0.068665	-0.031586	-0.005493	0.02243	0.04303	0.20783	-0.000916	0.005493	0.005341	0.019073	-0.026398	0.005035	-0.020905	0.12299	-0.30197	-0.000153	0.013733	-0.072937	-0.024414	0.16174	0.13565	0.1294	-0.008392	0.00061
46.617	0.00946	-0.09964	0.034943	0.007935	-0.036926	0.006714	-0.035248	-0.012207	0.13657	-0.064392	0.001373	0.018616	0.046082	0.24124	-0.015564	-0.0354	0.003357	0.042877	0.13992	0.087585	-0.03479	0.10895	-0.26398	0.019531	0.003357	0.009918	-0.037231	-0.16693	-0.24155	0.092621	-0.000763	-0.014343
46.618	0.006866	-0.10315	0.05188	0.020447	-0.060577	0.036163	-0.09491	0.003052	0.029755	-0.091095	0.002747	0.022125	0.019379	0.2005	-0.014191	-0.02533	-0.004272	0.035706	0.10696	0.29175	-0.003357	0.13779	-0.27359	0.000153	0.011749	0.042572	-0.005035	-0.074005	-0.42557	-0.047607	-0.000916	-0.017548
46.619	-0.011139	-0.1387	0.039215	0.008698	-0.080261	0.03006	-0.1358	0.002136	-0.031433	-0.044403	0.010529	0.01709	-0.004272	0.13092	-0.021667	0.055237	0.011139	0.039063	-0.09613	0.43854	-0.00412	0.13901	-0.24582	0.011749	-0.008392	0.02121	0.019073	0.13931	-0.26688	-0.16937	-0.001678	-0.021362
46.62	-0.00824	-0.1355	0.036316	-0.016174	-0.017548	-0.048065	-0.16296	0.003967	-0.05188	0.000763	0.006714	0.023499	-0.013123	0.121	-0.021973	0.11719	0.006714	0.036774	0.007019	0.29617	-0.007629	0.16419	-0.23377	0.00946	-0.007782	0.069122	0.003052	0.11688	0.039825	-0.27481	-0.001221	-0.025177
46.621	-0.015564	-0.12756	0.025024	-0.001068	0.10346	-0.094757	-0.18066	0.010834	-0.15472	0.027313	-0.001373	0.035095	-0.006104	0.14145	-0.028076	0.048065	0.009613	0.04364	0.28641	0.087433	-0.02121	0.19165	-0.27985	0.00946	0.005035	0.045929	0.001068	0.007782	-0.066528	0.28519	-0.000458	-0.017548
46.622	-0.021667	-0.18433	0.010986	0.010834	0.039673	-0.10864	-0.23422	0.010376	-0.17578	0.049286	0.000916	0.052643	0.013275	0.079346	-0.028229	-0.034485	-0.003204	0.057678	0.43259	-0.019226	-0.045319	0.078735	-0.30045	0.01297	0.019836	0.049438	-0.011902	-0.006409	-0.071564	0.84686	-0.002441	-0.013428
46.623	-0.009613	-0.18097	0.008392	0.024719	0.001068	-0.11398	-0.33905	0.00946	-0.13977	0.067902	-0.005493	0.13489	0.030365	0.099945	-0.024719	-0.078125	-0.001221	0.056458	0.33829	-0.046387	0.028992	-0.005493	-0.32257	-0.016479	0.000916	-0.006104	0.01297	0.045166	-0.12619	0.78812	0	-0.014648
46.624	-0.002594	-0.15503	0.011139	0.015869	0.047302	-0.066223	-0.18662	-0.002289	-0.08606	0.040131	-0.007782	0.036774	0.075226	0.12283	-0.00412	-0.050049	0.008392	0.027161	0.12268	-0.032043	0.01358	0.010986	-0.28366	-0.03479	0.007324	-0.040436	-0.014343	0.016022	0.13504	0.29053	-0.002899	-0.013123
46.625	0.006256	-0.14816	0.006104	0.013123	0.091858	0.036621	-0.000763	-0.009613	-0.10437	0.028687	0.001221	-0.093079	0.071716	-0.006866	-0.001984	-0.010376	0.007935	-0.031128	0.052643	-0.035095	0.006561	0.008087	-0.28793	-0.039368	-0.005646	-0.007782	-0.007935	-0.009766	0.15335	-0.024109	-0.003967	-0.011139
46.626	0.012665	-0.17181	-0.001678	-0.007019	0.062256	0.13214	0.12787	-0.005798	-0.022888	0.028839	0.001984	0.045166	0.082855	-0.084686	-0.004272	-0.004425	0.016785	0.010986	0.23209	-0.048218	0.00824	0.041199	-0.30731	-0.00351	0.007782	-0.014191	0.005035	-0.018005	0.22232	-0.35034	-0.002594	-0.020294
46.627	0.012054	-0.16296	0.006714	0.000458	0.00946	0.15396	0.096588	-0.007019	0.040436	0.029144	-0.001068	0.042419	0.043945	0.042267	-0.010681	0.010223	0.020752	-0.028992	0.60852	-0.081482	-0.011597	0.03952	-0.28793	0.013123	-0.00061	-0.045166	0.015259	-0.038757	0.22476	-0.057373	0.00061	-0.016479
46.628	-0.000153	-0.23056	0.008545	0.00885	-0.021973	0.20783	0.030365	-0.013123	0.006714	0.032501	-0.005646	0.033722	0.012207	0.06958	-0.016785	0.000153	0.024719	-0.062561	0.168	0.01709	-0.002899	0.0177	-0.32822	0.000305	0.014191	-0.026703	0.03418	-0.035553	0.17548	-0.074615	-0.000458	-0.021362
46.629	-0.005341	-0.27496	0.016022	-0.009003	-0.039673	0.083313	-0.014801	-0.011597	0.007172	0.015411	0	0.027618	-0.009308	0.084534	-0.009003	0.003052	0.01236	-0.13565	0.11749	-0.002594	-0.032349	0.036926	-0.35385	-0.008545	0.008087	-0.006866	0.034485	-0.055389	0.19165	-0.090332	-0.004425	-0.023956
